# xmcd
#
# Track frame offsets:
#	150
#	15375
#	28425
#	43575
#	61650
#	82800
#	99975
#	118350
#	136125
#	147225
#	174525
#	187725
#	208200
#	235500
#	259125
#	272625
#	286575
#	297000
#	307800
#	317325
#
# Disc length: 4680 seconds
#
# Revision: 2
# Processed by: cddbd v1.5.2PL0 Copyright (c) Steve Scherf et al.
# Submitted via: audiograbber 1.83.01
#
DISCID=09124614
DTITLE=J. S. Bach - Die Kunst der Fuge (Peter Kofler)
DYEAR=2010
DGENRE=Klassik
TTITLE0=Contrapunctus 1
TTITLE1=Contrapunctus 2
TTITLE2=Contrapunctus 3
TTITLE3=Contrapunctus 4
TTITLE4=Canon per Augmentationem in Contrario Motu
TTITLE5=Contrapunctus 5
TTITLE6=Contrapunctus 6 a 4 in Stylo Francese
TTITLE7=Contrapunctus 7 a 4 per Augmentationem et Diminutionem
TTITLE8=Canon alla Ottava
TTITLE9=Contrapunctus Contrapunctus 8 a 3
TTITLE10=Contrapunctus 9 a 4 alla Duodecima
TTITLE11=Contrapunctus 10 a 4 alla Decima
TTITLE12=Contrapunctus 11 a 4
TTITLE13=Canon alla Decima in Contrapunto alla Terza
TTITLE14=Contrapunctus 12 a 4 (inversus)
TTITLE15=Contrapunctus 12 a 4 (rectus)
TTITLE16=Contrapunctus 13 a 4 (rectus)
TTITLE17=Contrapunctus 13 a 4 (inversus)
TTITLE18=Canon alla Duodecima in Contrapunto alla Quinta
TTITLE19=Fuga a 3 [4] Soggetti
EXTD=
EXTT0=
EXTT1=
EXTT2=
EXTT3=
EXTT4=
EXTT5=
EXTT6=
EXTT7=
EXTT8=
EXTT9=
EXTT10=
EXTT11=
EXTT12=
EXTT13=
EXTT14=
EXTT15=
EXTT16=
EXTT17=
EXTT18=
EXTT19=
PLAYORDER=
